<?xml version="1.0" standalone="no"?>
<!DOCTYPE svg PUBLIC "-//W3C//DTD SVG 20010904//EN"
 "http://www.w3.org/TR/2001/REC-SVG-20010904/DTD/svg10.dtd">
<svg version="1.0" xmlns="http://www.w3.org/2000/svg"
 width="1458.000000pt" height="1747.000000pt" viewBox="0 0 1458.000000 1747.000000"
 preserveAspectRatio="xMidYMid meet">

<g transform="translate(0.000000,1747.000000) scale(0.100000,-0.100000)"
fill="#000000" stroke="none">
<path d="M8235 16106 c-379 -144 -723 -275 -763 -290 l-74 -28 72 -39 c325
-177 571 -526 651 -926 30 -152 37 -496 15 -713 -57 -546 -227 -1189 -504
-1910 -109 -284 -264 -644 -367 -851 l-55 -112 139 -236 c76 -130 192 -330
258 -446 150 -264 205 -355 212 -355 6 1 263 406 482 760 795 1288 1206 2276
1330 3195 26 193 32 606 11 770 -50 386 -175 733 -370 1030 -128 196 -308 417
-337 414 -5 0 -320 -119 -700 -263z"/>
<path d="M5350 16080 c-47 -27 -84 -54 -83 -59 2 -8 91 -161 97 -169 4 -4 165
89 171 99 6 8 -85 178 -95 179 -3 0 -43 -23 -90 -50z"/>
<path d="M5089 15646 c-113 -32 -222 -120 -276 -224 -85 -162 -68 -346 47
-498 161 -213 524 -219 694 -10 79 96 110 194 104 325 -4 78 -9 99 -42 165
-60 123 -162 208 -290 242 -63 17 -175 17 -237 0z m212 -136 c105 -33 119 -54
58 -86 -50 -25 -124 0 -147 52 -28 59 -11 66 89 34z m-231 -77 c0 -32 -25 -78
-52 -97 -22 -16 -108 -23 -108 -9 0 20 55 96 92 127 39 32 44 34 56 19 6 -9
12 -27 12 -40z m193 -119 c29 -15 57 -30 63 -35 12 -10 -2 -148 -16 -163 -10
-10 -151 -36 -162 -30 -7 4 -78 131 -78 140 0 15 106 114 122 114 10 0 42 -12
71 -26z m263 -50 c8 -41 0 -116 -15 -157 -9 -24 -14 -26 -31 -17 -58 31 -64
134 -10 183 40 35 48 34 56 -9z m-562 -138 c65 -27 97 -104 62 -152 -14 -18
-15 -18 -46 11 -35 34 -85 129 -75 144 8 14 19 14 59 -3z m387 -152 c17 -8 29
-21 26 -27 -6 -19 -108 -56 -154 -57 -36 0 -41 2 -36 20 3 11 21 33 40 50 38
34 77 39 124 14z"/>
<path d="M5075 14480 l-70 -70 75 -75 75 -75 75 76 75 76 -74 69 c-41 38 -77
69 -81 69 -3 0 -37 -32 -75 -70z"/>
<path d="M8015 6777 c-4 -13 -7 -58 -8 -99 l-2 -76 -32 5 -32 6 6 -51 c5 -47
3 -53 -26 -82 -17 -17 -35 -46 -40 -63 l-8 -32 -11 25 c-5 14 -17 43 -26 65
-26 61 -66 98 -66 60 0 -19 -5 -19 -35 1 -32 21 -55 12 -55 -21 0 -20 -5 -25
-24 -25 -28 0 -53 -24 -36 -35 8 -5 9 -28 5 -71 -9 -82 6 -124 44 -124 48 0
71 33 71 104 0 40 -3 46 -20 46 -17 0 -19 -3 -11 -18 12 -22 -11 -62 -34 -62
-24 0 -36 35 -24 67 25 66 84 86 115 38 17 -26 17 -34 -2 -226 -8 -81 2 -102
58 -122 76 -27 182 -41 206 -28 26 14 51 61 82 154 37 113 101 166 143 119 26
-28 22 -94 -6 -120 -18 -17 -26 -19 -35 -10 -17 17 -15 48 4 70 16 16 15 18
-1 24 -33 13 -73 -75 -55 -121 27 -70 93 -45 123 46 10 30 25 59 34 66 20 15
10 43 -18 50 -14 4 -18 11 -13 22 17 41 15 48 -9 55 -14 3 -33 3 -41 0 -12 -4
-16 0 -16 15 0 14 -6 21 -18 21 -23 0 -94 -50 -116 -82 -16 -22 -17 -22 -10
19 5 31 2 49 -10 67 -20 32 -20 38 3 87 l19 40 -26 16 c-15 9 -28 17 -28 17
-1 1 2 26 7 56 14 85 -9 178 -26 107z"/>
<path d="M7282 6363 c-18 -9 -37 -24 -43 -34 -14 -27 -26 -23 -34 11 -4 17
-10 30 -14 30 -22 0 -61 -45 -77 -89 -17 -48 -18 -49 -40 -34 -21 13 -24 13
-37 -9 -43 -67 -31 -107 76 -247 99 -130 117 -163 117 -219 0 -50 -20 -94 -64
-140 -40 -43 -77 -62 -135 -71 -31 -4 -46 -11 -46 -21 0 -38 168 11 230 67 61
55 91 127 80 193 -3 20 -35 84 -71 141 -35 57 -69 120 -76 140 -32 108 70 212
161 164 43 -22 57 -60 37 -102 -26 -54 -102 -55 -89 -1 5 18 4 19 -15 9 -23
-12 -38 -51 -29 -75 16 -41 106 -67 157 -46 37 15 70 74 70 125 0 53 -33 109
-75 129 -40 20 -39 16 -21 61 14 34 14 35 -7 35 -12 0 -37 -8 -55 -17z"/>
<path d="M7627 6096 c-40 -15 -73 -40 -88 -67 -8 -15 -4 -16 29 -12 48 6 67
-13 58 -60 -7 -36 -28 -59 -124 -132 -109 -81 -127 -141 -72 -229 l31 -47 -30
-37 c-32 -41 -129 -135 -205 -199 l-49 -41 46 -7 c44 -7 50 -5 90 28 23 19 82
74 131 121 l90 87 42 -10 c146 -37 245 36 299 222 21 74 72 130 112 125 22 -2
29 -9 33 -33 l6 -30 16 30 c38 71 31 145 -16 166 -54 25 -119 -20 -181 -126
-22 -37 -58 -89 -81 -114 l-42 -46 29 63 c27 55 79 196 79 211 0 3 -47 -43
-105 -103 -58 -60 -108 -106 -111 -103 -8 7 31 81 52 98 10 8 35 41 56 73 29
46 38 69 38 103 0 38 -4 46 -32 63 -38 23 -50 24 -101 6z"/>
<path d="M6900 6026 c0 -3 4 -16 10 -30 9 -24 7 -25 -32 -28 l-41 -3 51 -33
c27 -18 65 -49 82 -69 40 -45 86 -141 96 -196 l6 -41 19 23 c11 13 26 48 35
78 18 61 13 106 -16 163 -23 44 -85 104 -99 96 -6 -4 -28 5 -48 19 -34 22 -63
32 -63 21z"/>
<path d="M8427 5804 c-15 -30 -21 -35 -40 -30 -129 39 -221 -1 -252 -109 -19
-63 -12 -98 22 -125 42 -33 85 -22 111 27 17 32 15 38 -8 18 -28 -25 -50 -13
-50 29 0 27 8 41 41 70 49 45 94 47 118 5 13 -24 13 -32 -4 -75 -26 -71 -87
-128 -158 -149 -65 -19 -120 -21 -228 -10 -85 9 -122 -3 -224 -70 -56 -37
-175 -151 -175 -166 0 -23 44 -4 86 35 25 25 78 62 118 83 l71 38 202 -3 c231
-4 248 0 308 71 38 45 43 57 20 57 -22 0 -18 13 11 41 31 29 72 96 84 139 l9
31 -34 -20 c-19 -11 -35 -19 -35 -18 0 1 9 26 20 55 20 53 27 112 12 112 -5 0
-16 -16 -25 -36z"/>
<path d="M7240 5589 c-52 -43 -99 -87 -104 -98 -11 -26 -1 -64 27 -95 l22 -26
64 54 c75 62 100 104 100 166 -1 84 -5 84 -109 -1z"/>
<path d="M6860 5509 c0 -8 -15 -10 -47 -5 l-48 6 27 -26 26 -27 -21 -18 c-22
-18 -22 -18 28 -19 61 -1 166 -37 247 -85 33 -19 63 -33 66 -30 11 11 -31 75
-75 116 -68 62 -203 121 -203 88z"/>
<path d="M7595 5406 c-22 -7 -52 -19 -66 -27 -29 -15 -163 -138 -158 -144 2
-1 38 -6 80 -10 l77 -7 48 49 c27 28 68 73 92 101 l44 52 -39 -1 c-21 0 -56
-6 -78 -13z"/>
<path d="M7921 5304 c-56 -15 -168 -61 -185 -76 -16 -13 81 -9 184 7 129 21
200 37 206 47 9 14 -62 38 -108 37 -24 0 -67 -7 -97 -15z"/>
<path d="M11717 3789 c-161 -18 -314 -87 -411 -185 -118 -117 -176 -272 -176
-469 0 -192 46 -319 158 -437 142 -150 313 -211 587 -211 116 0 173 5 249 22
55 11 100 22 101 24 3 3 -14 259 -17 263 -2 1 -41 -9 -88 -23 -275 -80 -509
-12 -605 176 -82 163 -44 377 89 499 126 115 306 132 514 48 48 -19 82 -29 82
-22 1 6 7 65 15 131 7 66 10 123 7 126 -11 11 -172 48 -252 59 -86 11 -156 11
-253 -1z"/>
<path d="M6365 3779 c-128 -21 -276 -103 -346 -191 -93 -118 -132 -248 -132
-443 0 -153 16 -230 72 -349 66 -141 161 -224 321 -280 79 -28 95 -30 230 -31
158 0 216 10 315 55 165 75 267 208 310 403 14 62 16 110 13 230 -4 132 -8
162 -32 232 -87 255 -296 388 -604 384 -54 -1 -119 -5 -147 -10z m270 -267
c89 -45 140 -140 158 -289 27 -230 -52 -427 -189 -474 -50 -16 -128 -16 -178
0 -138 47 -217 248 -188 482 18 147 69 235 165 284 45 23 61 26 122 22 44 -2
85 -11 110 -25z"/>
<path d="M0 3140 l0 -630 195 0 195 0 0 225 0 224 146 3 146 3 49 130 c27 72
49 133 49 138 0 4 -88 7 -195 7 l-195 0 0 125 0 125 241 2 242 3 48 135 c27
74 49 136 49 137 0 2 -218 3 -485 3 l-485 0 0 -630z"/>
<path d="M1092 3138 l3 -633 198 -3 197 -2 0 635 0 635 -200 0 -200 0 2 -632z"/>
<path d="M1760 3140 l0 -630 195 0 195 0 0 225 0 225 144 0 143 0 51 138 50
137 -194 3 -194 2 0 125 0 125 241 2 242 3 48 135 c27 74 49 136 49 137 0 2
-218 3 -485 3 l-485 0 0 -630z"/>
<path d="M2977 3728 c-34 -89 -447 -1222 -447 -1225 0 -2 87 -3 194 -3 l195 0
16 58 c9 31 20 68 24 82 l8 25 223 0 224 0 25 -80 26 -80 198 -3 c108 -1 197
1 196 5 0 5 -102 289 -227 633 l-227 625 -206 3 -206 2 -16 -42z m291 -554
c40 -132 72 -244 72 -247 0 -4 -68 -7 -151 -7 -139 0 -151 1 -147 18 51 190
143 491 148 485 4 -4 39 -116 78 -249z"/>
<path d="M4092 3748 c3 -13 65 -296 139 -630 l134 -608 220 0 220 0 78 458
c43 251 81 468 85 482 3 15 29 -105 68 -315 35 -187 75 -404 89 -482 l27 -143
219 0 c120 0 219 2 219 4 0 3 263 1185 275 1234 l5 22 -164 0 -164 0 -6 -27
c-3 -16 -40 -230 -81 -478 -42 -247 -78 -451 -79 -453 -4 -3 -21 86 -113 591
l-67 367 -213 0 c-212 0 -213 0 -218 -22 -3 -13 -41 -227 -85 -477 -43 -249
-81 -455 -83 -457 -2 -2 -38 204 -81 459 -43 254 -80 470 -82 480 -5 15 -22
17 -176 17 l-170 0 4 -22z"/>
<path d="M7280 3135 l0 -635 170 0 170 0 0 255 0 255 58 0 c75 -1 133 -27 171
-80 25 -34 100 -243 146 -407 6 -23 8 -23 181 -23 96 0 174 4 174 8 0 4 -29
87 -64 183 -133 360 -146 388 -196 417 -16 9 -30 19 -30 22 0 3 21 14 47 24
65 27 126 86 154 149 31 72 33 211 3 277 -40 88 -127 151 -240 175 -53 11
-150 15 -406 15 l-338 0 0 -635z m600 369 c51 -30 75 -69 74 -119 -2 -96 -68
-136 -228 -138 l-101 -2 -3 144 -3 144 114 -5 c89 -3 121 -8 147 -24z"/>
<path d="M8500 3135 l0 -635 425 0 425 0 0 125 0 125 -257 2 -258 3 -3 508 -2
507 -165 0 -165 0 0 -635z"/>
<path d="M9470 3140 l0 -630 299 0 c307 0 409 9 526 46 87 28 168 77 230 139
113 113 157 237 157 450 1 151 -17 238 -64 327 -41 78 -95 137 -165 184 -138
92 -272 114 -687 114 l-296 0 0 -630z m575 369 c166 -31 263 -134 285 -302 19
-151 -18 -276 -107 -357 -75 -69 -146 -90 -299 -90 l-114 0 0 380 0 380 88 0
c49 0 115 -5 147 -11z"/>
<path d="M12320 3363 c0 -225 5 -439 10 -478 20 -141 107 -269 226 -332 98
-52 171 -67 329 -67 154 -1 210 11 318 66 112 56 204 178 224 298 5 25 7 242
5 483 l-4 437 -168 0 -169 0 -3 -432 -3 -433 -26 -56 c-30 -64 -67 -94 -133
-109 -114 -25 -209 31 -248 149 -8 25 -13 166 -15 459 l-4 422 -170 0 -169 0
0 -407z"/>
<path d="M13610 3136 l0 -636 168 2 167 3 3 223 2 222 119 0 c244 0 397 74
473 228 32 64 33 72 33 182 -1 140 -23 209 -90 276 -53 52 -103 79 -203 106
-68 19 -111 22 -374 26 l-298 4 0 -636z m536 375 c77 -35 108 -111 84 -202
-23 -85 -80 -118 -202 -119 l-78 0 0 170 0 170 78 0 c53 0 90 -6 118 -19z"/>
<path d="M1390 2109 c-320 -28 -560 -217 -642 -504 -27 -96 -32 -295 -9 -385
54 -218 210 -403 478 -569 70 -43 1171 -620 1217 -637 18 -7 19 -3 13 92 -8
117 -26 188 -61 248 -50 85 -58 90 -600 380 l-108 58 75 33 c157 68 286 170
365 290 73 109 94 175 99 325 6 146 -7 213 -62 327 -118 240 -415 373 -765
342z m242 -296 c99 -45 177 -147 209 -273 22 -89 17 -262 -10 -340 -33 -97
-95 -194 -177 -279 l-73 -76 -73 39 c-330 175 -479 417 -413 671 35 132 119
226 237 265 85 27 231 24 300 -7z"/>
<path d="M4199 2036 c-84 -37 -177 -96 -233 -149 -36 -34 -36 -35 -36 -116 l0
-81 -99 0 -99 0 -6 -57 c-3 -32 -8 -95 -12 -140 l-6 -83 110 0 110 0 4 -282
c6 -317 10 -345 76 -442 47 -71 117 -121 207 -149 l70 -22 930 0 c721 0 939 3
972 13 137 41 277 206 380 446 l38 88 3 -276 2 -276 170 0 170 0 0 589 0 589
-67 8 c-38 5 -178 8 -313 9 -200 0 -259 -3 -320 -18 -326 -76 -483 -314 -467
-707 3 -74 9 -148 13 -163 l7 -28 -684 3 -684 3 -59 30 c-95 48 -96 53 -96
342 l0 243 194 0 195 0 16 58 c20 68 45 180 45 205 0 16 -17 17 -228 17 l-228
0 4 88 c2 48 7 133 11 190 4 68 3 102 -4 102 -5 0 -44 -16 -86 -34z m2374
-703 c-80 -269 -156 -436 -224 -497 -47 -43 -79 -52 -121 -35 -60 25 -90 142
-92 369 -1 157 5 179 58 229 39 37 106 50 268 50 l146 1 -35 -117z"/>
<path d="M8605 2020 c-99 -12 -202 -38 -255 -63 -34 -17 -51 -34 -72 -73 -29
-53 -75 -210 -66 -220 4 -3 48 8 100 24 139 45 201 55 328 56 144 1 201 -16
257 -77 49 -53 67 -115 61 -206 -13 -177 -179 -338 -628 -607 l-182 -109 6
-101 c3 -56 8 -109 12 -118 6 -15 56 -16 572 -14 l566 3 18 58 c9 32 24 91 32
132 l14 75 -477 1 c-415 0 -472 2 -446 14 17 8 91 38 165 66 317 122 506 242
603 385 64 94 89 168 95 284 12 248 -106 409 -345 471 -90 23 -256 32 -358 19z"/>
<path d="M10030 2011 c-264 -58 -442 -208 -517 -435 -24 -72 -27 -97 -27 -216
0 -111 4 -149 22 -215 66 -233 227 -435 448 -560 170 -97 286 -112 429 -57
268 105 495 357 566 627 27 105 30 282 6 375 -49 186 -167 331 -338 414 -125
60 -196 76 -364 82 -112 3 -157 0 -225 -15z m372 -293 c146 -67 218 -198 218
-399 0 -305 -128 -577 -318 -673 -28 -14 -62 -26 -75 -26 -46 0 -126 51 -191
121 -113 122 -178 289 -195 495 -15 192 16 313 102 402 81 83 163 113 302 109
82 -3 111 -8 157 -29z"/>
<path d="M10169 1396 c-36 -29 -80 -72 -98 -95 l-33 -41 36 -42 c42 -49 145
-138 161 -138 16 0 120 89 161 138 l36 43 -37 45 c-30 36 -148 144 -159 144
-1 0 -31 -24 -67 -54z"/>
<path d="M11480 2019 c-94 -11 -225 -45 -265 -67 -19 -11 -41 -39 -60 -79 -31
-63 -72 -199 -62 -209 3 -3 47 8 99 24 143 46 202 56 339 56 120 1 128 0 184
-29 85 -43 119 -100 124 -206 4 -97 -15 -158 -74 -237 -81 -108 -308 -277
-608 -452 l-129 -75 7 -88 c3 -49 8 -102 12 -118 l6 -29 568 0 c313 0 569 2
569 4 0 2 11 46 24 98 13 51 27 110 31 130 l6 38 -478 2 -478 3 105 39 c339
126 529 232 649 363 102 110 143 220 143 378 0 230 -120 378 -357 440 -75 19
-256 27 -355 14z"/>
<path d="M12815 2020 c-93 -11 -195 -35 -254 -61 -34 -14 -54 -31 -68 -57 -22
-40 -57 -142 -71 -208 l-9 -42 82 29 c131 46 219 61 355 63 111 1 131 -2 175
-22 104 -48 139 -107 139 -232 1 -70 -4 -94 -25 -140 -63 -135 -286 -314 -673
-541 l-109 -64 6 -107 c3 -59 8 -112 12 -118 4 -7 198 -10 570 -10 l563 0 11
33 c16 49 51 200 51 220 0 16 -29 17 -472 17 -260 0 -468 4 -462 8 5 5 50 24
99 42 313 114 497 215 622 341 238 239 212 628 -52 779 -106 61 -317 91 -490
70z"/>
<path d="M2904 1696 c-221 -42 -363 -141 -443 -308 -53 -111 -71 -205 -71
-373 0 -222 42 -369 130 -454 116 -112 307 -81 448 72 61 68 126 172 193 311
l58 121 0 -277 1 -278 170 0 170 0 0 589 0 588 -42 7 c-24 3 -155 8 -293 11
-187 4 -268 1 -321 -9z m306 -273 c-5 -16 -32 -100 -61 -188 -91 -284 -174
-424 -262 -440 -99 -19 -140 86 -141 370 -1 135 2 165 17 192 38 71 108 91
309 92 l147 1 -9 -27z"/>
<path d="M7949 1696 c-151 -40 -264 -179 -343 -418 l-35 -103 -1 120 c0 114
-12 275 -26 358 l-6 37 -165 0 -165 0 6 -62 c3 -35 9 -300 12 -590 l6 -528
167 0 167 0 12 148 c22 285 92 484 212 604 73 73 130 98 222 98 l48 0 0 48
c-1 55 -17 235 -26 275 -6 30 -16 32 -85 13z"/>
</g>
</svg>
